<svg width="1600" height="900" viewBox="0 0 1600 900" fill="none" xmlns="http://www.w3.org/2000/svg">
  <defs>
    <linearGradient id="bg" x1="0" y1="0" x2="1600" y2="900" gradientUnits="userSpaceOnUse">
      <stop stop-color="#F2ECE2"/>
      <stop offset="1" stop-color="#DCCFBD"/>
    </linearGradient>
    <linearGradient id="steel" x1="0" y1="0" x2="1" y2="1">
      <stop stop-color="#9AA4A9"/>
      <stop offset="1" stop-color="#6C7880"/>
    </linearGradient>
    <linearGradient id="machine" x1="0" y1="0" x2="0" y2="1">
      <stop stop-color="#6F7D84"/>
      <stop offset="1" stop-color="#3F4B52"/>
    </linearGradient>
    <linearGradient id="accent" x1="0" y1="0" x2="1" y2="1">
      <stop stop-color="#D48347"/>
      <stop offset="1" stop-color="#8F4B23"/>
    </linearGradient>
    <filter id="soft" x="-20%" y="-20%" width="140%" height="140%">
      <feGaussianBlur stdDeviation="8"/>
    </filter>
  </defs>

  <rect width="1600" height="900" fill="url(#bg)"/>
  <rect y="700" width="1600" height="200" fill="#C8B8A0"/>
  <rect y="720" width="1600" height="8" fill="#B18255" opacity="0.35"/>

  <g opacity="0.28" filter="url(#soft)">
    <circle cx="1350" cy="180" r="120" fill="#C98A4F"/>
    <circle cx="1180" cy="240" r="80" fill="#9AA4A9"/>
  </g>

  <g opacity="0.72">
    <rect x="120" y="170" width="420" height="430" rx="18" fill="url(#machine)"/>
    <rect x="170" y="230" width="150" height="265" rx="10" fill="#BFC6CA"/>
    <rect x="350" y="210" width="135" height="305" rx="12" fill="#29343B"/>
    <rect x="200" y="270" width="90" height="90" rx="8" fill="#738087"/>
    <rect x="205" y="275" width="80" height="80" rx="6" fill="#D9DDD9"/>
    <rect x="330" y="548" width="170" height="36" rx="10" fill="#222B31"/>
    <circle cx="265" cy="405" r="24" fill="#B26B35" opacity="0.65"/>
  </g>

  <g opacity="0.68">
    <rect x="640" y="210" width="520" height="300" rx="20" fill="url(#machine)"/>
    <rect x="705" y="262" width="180" height="170" rx="12" fill="#D4D8D6"/>
    <rect x="925" y="252" width="160" height="190" rx="12" fill="#2C363C"/>
    <rect x="670" y="520" width="450" height="40" rx="12" fill="#243036"/>
    <rect x="725" y="335" width="70" height="16" rx="8" fill="url(#accent)"/>
    <rect x="815" y="335" width="70" height="16" rx="8" fill="#91A0A8"/>
  </g>

  <g opacity="0.58">
    <rect x="1215" y="270" width="210" height="270" rx="18" fill="url(#steel)"/>
    <rect x="1248" y="325" width="145" height="150" rx="12" fill="#E3E2DD"/>
    <rect x="1252" y="486" width="138" height="25" rx="8" fill="#5D6A71"/>
  </g>

  <g opacity="0.95">
    <ellipse cx="1020" cy="738" rx="92" ry="18" fill="#7C6B58" opacity="0.22"/>
    <circle cx="1010" cy="642" r="30" fill="#364046"/>
    <rect x="985" y="670" width="52" height="110" rx="18" fill="#364046"/>
    <rect x="956" y="694" width="42" height="18" rx="9" transform="rotate(-18 956 694)" fill="#364046"/>
    <rect x="1030" y="688" width="50" height="18" rx="9" transform="rotate(28 1030 688)" fill="#364046"/>
    <rect x="982" y="778" width="20" height="82" rx="10" transform="rotate(8 982 778)" fill="#364046"/>
    <rect x="1024" y="778" width="20" height="82" rx="10" transform="rotate(-8 1024 778)" fill="#364046"/>
  </g>

  <g opacity="0.95">
    <ellipse cx="1170" cy="742" rx="88" ry="18" fill="#7C6B58" opacity="0.22"/>
    <circle cx="1164" cy="646" r="28" fill="#2D373C"/>
    <rect x="1140" y="672" width="48" height="106" rx="18" fill="#2D373C"/>
    <rect x="1110" y="688" width="60" height="16" rx="8" transform="rotate(-36 1110 688)" fill="#2D373C"/>
    <rect x="1176" y="687" width="64" height="16" rx="8" transform="rotate(16 1176 687)" fill="#2D373C"/>
    <rect x="1136" y="778" width="19" height="84" rx="10" transform="rotate(9 1136 778)" fill="#2D373C"/>
    <rect x="1174" y="778" width="19" height="84" rx="10" transform="rotate(-5 1174 778)" fill="#2D373C"/>
  </g>

  <g opacity="0.55">
    <path d="M1190 620C1212 598 1240 596 1262 614" stroke="#D48347" stroke-width="4" stroke-linecap="round" stroke-dasharray="6 10"/>
    <path d="M1218 602C1240 580 1272 580 1295 598" stroke="#D48347" stroke-width="4" stroke-linecap="round" stroke-dasharray="6 10"/>
  </g>

  <g opacity="0.32">
    <rect x="0" y="80" width="1600" height="28" fill="#F8F3EA"/>
    <rect x="0" y="112" width="1600" height="8" fill="#B4BFC5" opacity="0.35"/>
    <rect x="240" y="96" width="150" height="14" rx="7" fill="#D48347" opacity="0.55"/>
    <rect x="630" y="96" width="170" height="14" rx="7" fill="#D48347" opacity="0.45"/>
    <rect x="1020" y="96" width="140" height="14" rx="7" fill="#D48347" opacity="0.4"/>
  </g>
</svg>
