<svg width="1200" height="800" viewBox="0 0 1200 800" fill="none" xmlns="http://www.w3.org/2000/svg">
  <rect width="1200" height="800" fill="#111827"/>
  <rect x="64" y="96" width="1072" height="608" rx="28" fill="#171F2B" stroke="#334155" stroke-width="2"/>
  <path d="M64 254H1136" stroke="#233041" stroke-width="2"/>
  <path d="M311 96V704" stroke="#233041" stroke-width="2"/>
  <circle cx="178" cy="190" r="68" fill="#0F6FFF" fill-opacity="0.18" stroke="#42A5FF" stroke-width="2"/>
  <rect x="394" y="162" width="286" height="22" rx="11" fill="#E5E7EB" fill-opacity="0.9"/>
  <rect x="394" y="206" width="452" height="14" rx="7" fill="#94A3B8" fill-opacity="0.9"/>
  <rect x="394" y="296" width="178" height="140" rx="20" fill="#0F172A" stroke="#334155"/>
  <rect x="602" y="296" width="178" height="140" rx="20" fill="#0F172A" stroke="#334155"/>
  <rect x="810" y="296" width="178" height="140" rx="20" fill="#0F172A" stroke="#334155"/>
  <rect x="394" y="476" width="594" height="142" rx="22" fill="#0B1220" stroke="#334155"/>
  <rect x="420" y="508" width="542" height="16" rx="8" fill="#334155"/>
  <rect x="420" y="546" width="420" height="12" rx="6" fill="#1D4ED8" fill-opacity="0.65"/>
  <rect x="420" y="578" width="500" height="12" rx="6" fill="#475569"/>
  <text x="114" y="610" fill="#E2E8F0" font-family="Arial" font-size="38" font-weight="700">Mechnnovation</text>
</svg>
