<svg width="1600" height="1000" viewBox="0 0 1600 1000" fill="none" xmlns="http://www.w3.org/2000/svg">
  <defs>
    <linearGradient id="bg" x1="146" y1="88" x2="1424" y2="930" gradientUnits="userSpaceOnUse">
      <stop stop-color="#FFF8F1"/>
      <stop offset="0.52" stop-color="#F5F7FB"/>
      <stop offset="1" stop-color="#EEF2F7"/>
    </linearGradient>
    <linearGradient id="panel" x1="350" y1="150" x2="1290" y2="860" gradientUnits="userSpaceOnUse">
      <stop stop-color="#FFFFFF"/>
      <stop offset="1" stop-color="#EEF3F8"/>
    </linearGradient>
    <linearGradient id="floor" x1="282" y1="646" x2="1325" y2="822" gradientUnits="userSpaceOnUse">
      <stop stop-color="#DDE5EE"/>
      <stop offset="1" stop-color="#BFCAD7"/>
    </linearGradient>
    <linearGradient id="machineSteel" x1="531" y1="245" x2="1041" y2="690" gradientUnits="userSpaceOnUse">
      <stop stop-color="#DCE6EF"/>
      <stop offset="0.48" stop-color="#BBC7D5"/>
      <stop offset="1" stop-color="#8A9AAD"/>
    </linearGradient>
    <linearGradient id="machineAccent" x1="600" y1="292" x2="904" y2="607" gradientUnits="userSpaceOnUse">
      <stop stop-color="#113A5C"/>
      <stop offset="1" stop-color="#1E6A8D"/>
    </linearGradient>
    <linearGradient id="glass" x1="632" y1="301" x2="859" y2="618" gradientUnits="userSpaceOnUse">
      <stop stop-color="#193C58"/>
      <stop offset="0.6" stop-color="#245B84"/>
      <stop offset="1" stop-color="#4E89B0"/>
    </linearGradient>
    <linearGradient id="screen" x1="944" y1="339" x2="1026" y2="544" gradientUnits="userSpaceOnUse">
      <stop stop-color="#162A42"/>
      <stop offset="1" stop-color="#28537B"/>
    </linearGradient>
    <linearGradient id="tricolor" x1="405" y1="724" x2="1197" y2="724" gradientUnits="userSpaceOnUse">
      <stop stop-color="#FF8F2A"/>
      <stop offset="0.5" stop-color="#FFFFFF"/>
      <stop offset="1" stop-color="#239B56"/>
    </linearGradient>
    <linearGradient id="gearMetal" x1="720" y1="715" x2="925" y2="895" gradientUnits="userSpaceOnUse">
      <stop stop-color="#DCE3EB"/>
      <stop offset="1" stop-color="#8A97A8"/>
    </linearGradient>
    <radialGradient id="glowOrange" cx="0" cy="0" r="1" gradientUnits="userSpaceOnUse" gradientTransform="translate(1284 188) rotate(127.853) scale(262.442 371.052)">
      <stop stop-color="#FFA15B" stop-opacity="0.42"/>
      <stop offset="1" stop-color="#FFA15B" stop-opacity="0"/>
    </radialGradient>
    <radialGradient id="glowGreen" cx="0" cy="0" r="1" gradientUnits="userSpaceOnUse" gradientTransform="translate(1300 736) rotate(-146.183) scale(293.455 391.325)">
      <stop stop-color="#36B76A" stop-opacity="0.34"/>
      <stop offset="1" stop-color="#36B76A" stop-opacity="0"/>
    </radialGradient>
    <pattern id="dots" width="24" height="24" patternUnits="userSpaceOnUse">
      <circle cx="2" cy="2" r="2" fill="#D5DEE7"/>
    </pattern>
    <filter id="shadow" x="172" y="102" width="1264" height="784" filterUnits="userSpaceOnUse" color-interpolation-filters="sRGB">
      <feFlood flood-opacity="0" result="BackgroundImageFix"/>
      <feColorMatrix in="SourceAlpha" type="matrix" values="0 0 0 0 0 0 0 0 0 0 0 0 0 0 0 0 0 0 127 0" result="hardAlpha"/>
      <feOffset dy="26"/>
      <feGaussianBlur stdDeviation="28"/>
      <feColorMatrix type="matrix" values="0 0 0 0 0.0901961 0 0 0 0 0.137255 0 0 0 0 0.196078 0 0 0 0.18 0"/>
      <feBlend mode="normal" in2="BackgroundImageFix" result="effect1_dropShadow_1_2"/>
      <feBlend mode="normal" in="SourceGraphic" in2="effect1_dropShadow_1_2" result="shape"/>
    </filter>
  </defs>

  <rect width="1600" height="1000" fill="url(#bg)"/>
  <circle cx="1284" cy="188" r="264" fill="url(#glowOrange)"/>
  <circle cx="1300" cy="736" r="296" fill="url(#glowGreen)"/>
  <rect x="134" y="118" width="246" height="246" rx="48" fill="url(#dots)" opacity="0.4"/>
  <rect x="1224" y="618" width="186" height="186" rx="40" fill="url(#dots)" opacity="0.3"/>

  <g filter="url(#shadow)">
    <rect x="228" y="132" width="1144" height="672" rx="42" fill="url(#panel)"/>
    <rect x="282" y="644" width="1044" height="124" rx="28" fill="url(#floor)"/>
    <path d="M405 724C543 681 755 680 899 705C1051 732 1135 746 1197 724V767H405V724Z" fill="url(#tricolor)" opacity="0.88"/>

    <rect x="360" y="184" width="194" height="44" rx="22" fill="#103451"/>
    <text x="392" y="213" fill="#FFFFFF" font-family="Segoe UI, Arial, sans-serif" font-size="23" font-weight="700" letter-spacing="1.8">PUNE, INDIA</text>

    <rect x="360" y="250" width="330" height="78" rx="26" fill="#FFFFFF"/>
    <text x="393" y="299" fill="#10263F" font-family="Segoe UI, Arial, sans-serif" font-size="40" font-weight="700">Precision Manufacturing</text>

    <rect x="904" y="210" width="334" height="52" rx="26" fill="#F2F5F9"/>
    <circle cx="946" cy="236" r="10" fill="#FF8F2A"/>
    <circle cx="980" cy="236" r="10" fill="#FFFFFF" stroke="#C8D1DA" stroke-width="2"/>
    <circle cx="1014" cy="236" r="10" fill="#239B56"/>
    <text x="1046" y="244" fill="#31465C" font-family="Segoe UI, Arial, sans-serif" font-size="22" font-weight="600">Industrial tooling and CNC support</text>

    <g>
      <rect x="520" y="258" width="546" height="420" rx="34" fill="url(#machineSteel)"/>
      <rect x="520" y="258" width="546" height="64" rx="34" fill="#D0DBE6"/>
      <rect x="548" y="282" width="128" height="16" rx="8" fill="#1C496D" opacity="0.85"/>
      <rect x="612" y="302" width="246" height="314" rx="26" fill="url(#glass)"/>
      <rect x="632" y="322" width="206" height="274" rx="22" fill="url(#machineAccent)"/>
      <rect x="664" y="510" width="146" height="56" rx="16" fill="#AEC8DA"/>
      <rect x="642" y="344" width="186" height="132" rx="18" fill="url(#glass)" opacity="0.62"/>
      <rect x="910" y="332" width="108" height="232" rx="18" fill="#E4ECF3"/>
      <rect x="930" y="352" width="68" height="118" rx="14" fill="url(#screen)"/>
      <rect x="944" y="370" width="40" height="8" rx="4" fill="#80E0FF" opacity="0.9"/>
      <rect x="944" y="390" width="40" height="8" rx="4" fill="#4FCB8D" opacity="0.8"/>
      <rect x="944" y="410" width="24" height="8" rx="4" fill="#FFB04F" opacity="0.8"/>
      <g fill="#A8B6C4">
        <rect x="930" y="488" width="16" height="16" rx="4"/>
        <rect x="952" y="488" width="16" height="16" rx="4"/>
        <rect x="974" y="488" width="16" height="16" rx="4"/>
        <rect x="930" y="510" width="16" height="16" rx="4"/>
        <rect x="952" y="510" width="16" height="16" rx="4"/>
        <rect x="974" y="510" width="16" height="16" rx="4"/>
      </g>
      <rect x="592" y="630" width="388" height="22" rx="11" fill="#70849B"/>
      <rect x="665" y="546" width="160" height="56" rx="14" fill="#CDD7E1"/>
      <path d="M686 546L742 500H850L804 546H686Z" fill="#B9C6D4"/>
      <rect x="736" y="468" width="88" height="22" rx="11" fill="#F8FBFF" opacity="0.66"/>
    </g>

    <g opacity="0.96">
      <ellipse cx="815" cy="768" rx="226" ry="24" fill="#8C99A9" opacity="0.25"/>
      <g>
        <circle cx="770" cy="784" r="72" fill="url(#gearMetal)"/>
        <circle cx="770" cy="784" r="34" fill="#F3F7FB"/>
        <g fill="#A2AEBC">
          <rect x="760" y="690" width="20" height="44" rx="10"/>
          <rect x="760" y="834" width="20" height="44" rx="10"/>
          <rect x="676" y="774" width="44" height="20" rx="10"/>
          <rect x="820" y="774" width="44" height="20" rx="10"/>
          <rect x="705" y="715" width="20" height="44" rx="10" transform="rotate(-45 705 715)"/>
          <rect x="807" y="817" width="20" height="44" rx="10" transform="rotate(-45 807 817)"/>
          <rect x="807" y="707" width="20" height="44" rx="10" transform="rotate(45 807 707)"/>
          <rect x="705" y="809" width="20" height="44" rx="10" transform="rotate(45 705 809)"/>
        </g>
      </g>
      <rect x="870" y="714" width="162" height="104" rx="24" fill="#C3CED9"/>
      <path d="M900 714H1010L974 664H938L900 714Z" fill="#AAB8C6"/>
      <rect x="936" y="742" width="28" height="48" rx="10" fill="#7E91A6"/>
      <circle cx="1112" cy="732" r="32" fill="#E7EDF3"/>
      <circle cx="1112" cy="732" r="12" fill="#96A5B5"/>
      <path d="M1076 782H1148" stroke="#8A98A7" stroke-width="10" stroke-linecap="round"/>
    </g>

    <g>
      <ellipse cx="463" cy="720" rx="96" ry="16" fill="#8A97A6" opacity="0.2"/>
      <circle cx="452" cy="438" r="34" fill="#C88757"/>
      <path d="M414 434C414 409 432 392 456 392C480 392 496 408 496 434V442H414V434Z" fill="#F59A2A"/>
      <path d="M402 480C402 454 423 434 450 434H462C489 434 510 454 510 480V560H402V480Z" fill="#163D62"/>
      <rect x="394" y="556" width="60" height="116" rx="30" fill="#223B55"/>
      <rect x="458" y="556" width="60" height="116" rx="30" fill="#223B55"/>
      <rect x="512" y="500" width="92" height="118" rx="16" transform="rotate(8 512 500)" fill="#EFF4F8"/>
      <rect x="530" y="522" width="58" height="8" rx="4" transform="rotate(8 530 522)" fill="#A8B5C3"/>
      <rect x="530" y="544" width="40" height="8" rx="4" transform="rotate(8 530 544)" fill="#A8B5C3"/>
      <path d="M504 518L548 546" stroke="#C88757" stroke-width="16" stroke-linecap="round"/>
      <path d="M410 522L366 566" stroke="#C88757" stroke-width="16" stroke-linecap="round"/>

      <circle cx="340" cy="492" r="26" fill="#B87348"/>
      <path d="M308 490C308 470 322 456 342 456C362 456 376 470 376 490V496H308V490Z" fill="#239B56"/>
      <path d="M300 524C300 503 317 486 338 486H346C368 486 384 503 384 524V592H300V524Z" fill="#F4F7FA"/>
      <rect x="300" y="588" width="40" height="88" rx="20" fill="#6D7F91"/>
      <rect x="344" y="588" width="40" height="88" rx="20" fill="#6D7F91"/>
    </g>

    <path d="M542 208C600 174 696 174 760 208" stroke="#FF8F2A" stroke-width="10" stroke-linecap="round" opacity="0.75"/>
    <path d="M768 208C824 176 900 176 952 208" stroke="#239B56" stroke-width="10" stroke-linecap="round" opacity="0.75"/>
  </g>
</svg>
