<svg xmlns="http://www.w3.org/2000/svg" viewBox="0 0 175.216 175.552">
  <defs>
    <linearGradient id="wag" x1="85.915%" x2="14.083%" y1="14.082%" y2="85.917%">
      <stop offset="0" stop-color="#57D163"/>
      <stop offset="1" stop-color="#23B33A"/>
    </linearGradient>
  </defs>
  <path fill="url(#wag)" d="M87.608 0C39.25 0 0 39.25 0 87.608c0 15.476 4.068 30.002 11.176 42.6L0 175.552l46.862-10.938c12.13 6.48 25.922 10.182 40.746 10.182 48.358 0 87.608-39.25 87.608-87.608S135.966 0 87.608 0z"/>
  <path fill="#FFF" d="M130.387 107.453c-1.77-4.43-10.24-8.484-10.24-8.484s-1.624-.896-3.8.168c0 0-6.016 2.944-9.11 4.354-1.498.688-2.67.266-3.594-.418-6.836-5.006-12.74-10.91-17.778-17.73-.772-1.03-1.016-2.216-.15-3.52 1.666-2.51 4.752-6.63 4.752-6.63.952-1.61.56-3.16-.084-4.688l-7.504-16.52c-.938-2.064-2.94-2.54-4.508-2.54h-.014c-2.026 0-4.434.22-6.396 2.18-5.252 5.25-7.616 11.89-4.962 20.308 4.578 14.362 14.26 26.59 26.95 35.226 6.75 4.57 13.516 7.39 19.864 8.37 4.19.645 10.27.266 15.132-3.476 3.374-2.596 5.4-6.374 4.442-9.4z"/>
</svg>
